<svg xmlns="http://www.w3.org/2000/svg" version="1.1" xmlns:xlink="http://www.w3.org/1999/xlink" width="24" height="24" x="0" y="0" viewBox="0 0 682.667 682.667" style="enable-background:new 0 0 512 512" xml:space="preserve" class=""><g><path d="M604.672 0H35.297C15.8.012-.003 15.824 0 35.328v569.375C.012 624.2 15.824 640.003 35.328 640h306.547V392.5H258.75v-96.875h83.125v-71.293c0-82.676 50.473-127.676 124.223-127.676 35.324 0 65.68 2.633 74.527 3.809v86.41H489.77c-40.125 0-47.895 19.066-47.895 47.05v61.7h95.938l-12.5 96.875h-83.438V640h162.797c19.508.004 35.324-15.805 35.328-35.313V35.298C639.992 15.8 624.176-.003 604.672 0zm0 0" fill="#777777" opacity="1" data-original="#000000" class=""></path></g></svg>