<svg xmlns="http://www.w3.org/2000/svg" version="1.1" xmlns:xlink="http://www.w3.org/1999/xlink" width="512" height="512" x="0" y="0" viewBox="0 0 128 128" style="enable-background:new 0 0 512 512" xml:space="preserve" class=""><g transform="matrix(0.7000000000000002,0,0,0.7000000000000002,19.200342321395873,19.199972391128533)"><path d="M123.357 22.9a1.749 1.749 0 0 0-1.412-1.192l-9.166-1.332-4.1-8.3a1.751 1.751 0 0 0-3.139 0l-4.1 8.305-9.166 1.332a1.751 1.751 0 0 0-.969 2.986l6.632 6.464-1.565 9.129a1.75 1.75 0 0 0 2.539 1.844l8.2-4.31 8.2 4.31a1.75 1.75 0 0 0 2.539-1.844l-1.566-9.129 6.633-6.465a1.748 1.748 0 0 0 .44-1.798zm-10.176 6.4a1.749 1.749 0 0 0-.5 1.549l1.121 6.54-5.876-3.089a1.751 1.751 0 0 0-1.629 0l-5.874 3.088 1.122-6.54a1.749 1.749 0 0 0-.5-1.549l-4.753-4.632 6.567-.954a1.752 1.752 0 0 0 1.318-.957l2.937-5.951 2.937 5.951a1.752 1.752 0 0 0 1.317.957l6.568.954zM35.723 21.709l-9.165-1.332-4.1-8.3a1.751 1.751 0 0 0-3.139 0l-4.1 8.305-9.164 1.327a1.751 1.751 0 0 0-.97 2.985l6.633 6.465-1.566 9.129a1.75 1.75 0 0 0 2.539 1.844l8.2-4.31 8.2 4.31a1.75 1.75 0 0 0 2.539-1.844l-1.57-9.129 6.632-6.465a1.75 1.75 0 0 0-.969-2.985zM26.958 29.3a1.749 1.749 0 0 0-.5 1.549l1.122 6.54L21.7 34.3a1.751 1.751 0 0 0-1.629 0L14.2 37.384l1.121-6.54a1.749 1.749 0 0 0-.5-1.549l-4.752-4.632 6.568-.954a1.752 1.752 0 0 0 1.317-.957l2.935-5.952 2.937 5.951a1.752 1.752 0 0 0 1.318.957l6.566.954zM96 60.218a7.056 7.056 0 0 0-4.9 1.973 7.075 7.075 0 0 0-10.666-1 7.078 7.078 0 0 0-9.349-2V40.429l3.239 1.7a1.75 1.75 0 0 0 2.539-1.844L74.89 28.793l8.352-8.14a1.751 1.751 0 0 0-.97-2.986L70.73 15.991 65.569 5.533a1.749 1.749 0 0 0-3.138 0l-5.162 10.458-11.542 1.676a1.751 1.751 0 0 0-.969 2.986l8.351 8.14-1.971 11.495a1.75 1.75 0 0 0 2.539 1.844l3.24-1.7v28.75l-6.724 3.076a6.767 6.767 0 0 0-3.942 6.139v14.308a11.712 11.712 0 0 0 1.974 6.518l8.692 13.036v9.434a1.75 1.75 0 1 0 3.5 0v-8.214h39.165v8.214a1.75 1.75 0 0 0 3.5 0V67.3A7.091 7.091 0 0 0 96 60.218zM55.186 37.385l1.529-8.907a1.752 1.752 0 0 0-.5-1.549l-6.475-6.307 8.944-1.3A1.752 1.752 0 0 0 60 18.365l4-8.1 4 8.1a1.752 1.752 0 0 0 1.317.957l8.944 1.3-6.472 6.307a1.749 1.749 0 0 0-.5 1.549l1.527 8.906-1.729-.909v-.389a7.083 7.083 0 0 0-14.166 0v.389zm4.414 72.594-8.466-12.7a8.218 8.218 0 0 1-1.386-4.576V78.394a3.258 3.258 0 0 1 1.9-2.956l5.268-2.41v12.821a1.75 1.75 0 1 0 3.5 0V36.086a3.583 3.583 0 0 1 7.166 0V65.3a1.75 1.75 0 1 0 3.5 0 3.583 3.583 0 1 1 7.166 0v1a1.75 1.75 0 1 0 3.5 0 3.583 3.583 0 0 1 7.166 0v1a1.75 1.75 0 0 0 3.5 0 3.584 3.584 0 0 1 7.167 0v42.678z" fill="#bead8e" opacity="1" data-original="#000000"></path></g></svg>