<svg width="16" height="17" viewBox="0 0 16 17" fill="none" xmlns="http://www.w3.org/2000/svg">
<g id="svg-gobbler - 2022-03-03T180356.761 1" clip-path="url(#clip0_1_582)">
<g id="Group">
<path id="Vector" d="M3.46403 12.9878C3.46403 12.6028 3.72003 12.5391 3.85506 12.166C3.89916 12.0442 3.83613 11.9096 3.71428 11.8655C3.59234 11.8215 3.45791 11.8844 3.41378 12.0063C3.31978 12.2661 2.99475 12.4269 2.99475 12.9878C2.99475 13.6588 3.44884 13.7238 3.44884 14.1925C3.44884 14.6714 2.99475 14.7156 2.99475 15.3972C2.99475 15.5268 3.09978 15.6319 3.22938 15.6319C3.35897 15.6319 3.464 15.5268 3.464 15.3972C3.464 14.9183 3.91809 14.8741 3.91809 14.1925C3.91813 13.5214 3.46403 13.4568 3.46403 12.9878Z" fill="#BEAD8E"/>
<path id="Vector_2" d="M8.33525 12.9878C8.33525 12.6028 8.591 12.5398 8.72628 12.166C8.7704 12.0442 8.70737 11.9096 8.58553 11.8655C8.46387 11.8215 8.32919 11.8844 8.28506 12.0063C8.1909 12.2663 7.86597 12.4266 7.86597 12.9878C7.86597 13.6588 8.32006 13.7238 8.32006 14.1925C8.32006 14.6714 7.86597 14.7156 7.86597 15.3972C7.86597 15.5268 7.971 15.6319 8.10059 15.6319C8.23019 15.6319 8.33522 15.5268 8.33522 15.3972C8.33522 14.9183 8.78931 14.8741 8.78931 14.1925C8.78937 13.5214 8.33525 13.4568 8.33525 12.9878V12.9878Z" fill="#BEAD8E"/>
<path id="Vector_3" d="M5.8997 12.9878C5.8997 12.6027 6.15542 12.5398 6.2907 12.166C6.33483 12.0442 6.27179 11.9096 6.14995 11.8655C6.02829 11.8215 5.89361 11.8844 5.84948 12.0063C5.75526 12.2664 5.43042 12.4266 5.43042 12.9878C5.43042 13.6588 5.88451 13.7238 5.88451 14.1925C5.88451 14.6714 5.43042 14.7156 5.43042 15.3972C5.43042 15.5268 5.53545 15.6319 5.66504 15.6319C5.79464 15.6319 5.89967 15.5268 5.89967 15.3972C5.89967 14.9183 6.35376 14.8741 6.35376 14.1925C6.35379 13.5214 5.8997 13.4568 5.8997 12.9878V12.9878Z" fill="#BEAD8E"/>
<path id="Vector_4" d="M10.7709 12.9878C10.7709 12.6027 11.0266 12.5398 11.1619 12.166C11.206 12.0442 11.143 11.9096 11.0212 11.8655C10.8995 11.8215 10.7648 11.8844 10.7207 12.0063C10.6265 12.2664 10.3016 12.4266 10.3016 12.9878C10.3016 13.6588 10.7557 13.7238 10.7557 14.1925C10.7557 14.6714 10.3016 14.7156 10.3016 15.3972C10.3016 15.5268 10.4067 15.6319 10.5363 15.6319C10.6659 15.6319 10.7709 15.5268 10.7709 15.3972C10.7709 14.9183 11.225 14.8741 11.225 14.1925C11.225 13.5214 10.7709 13.4568 10.7709 12.9878V12.9878Z" fill="#BEAD8E"/>
<path id="Vector_5" d="M13.2066 12.9878C13.2066 12.6027 13.4623 12.5398 13.5976 12.166C13.6417 12.0442 13.5787 11.9096 13.4568 11.8655C13.3352 11.8215 13.2005 11.8844 13.1564 12.0063C13.0621 12.2664 12.7373 12.4266 12.7373 12.9878C12.7373 13.6588 13.1914 13.7238 13.1914 14.1925C13.1914 14.6714 12.7373 14.7156 12.7373 15.3972C12.7373 15.5268 12.8423 15.6319 12.9719 15.6319C13.1015 15.6319 13.2066 15.5268 13.2066 15.3972C13.2066 14.9183 13.6606 14.8741 13.6606 14.1925C13.6606 13.5214 13.2066 13.4568 13.2066 12.9878V12.9878Z" fill="#BEAD8E"/>
<path id="Vector_6" d="M1.32874 4.15518L1.31042 4.23861C1.28264 4.36518 1.36277 4.4903 1.48933 4.51805C1.61611 4.5458 1.74105 4.46555 1.7688 4.33914L1.80917 4.15518H2.22417V4.57018L2.04017 4.61055C1.91361 4.63833 1.83349 4.76346 1.8613 4.89002C1.88908 5.01658 2.01424 5.09664 2.14074 5.06889L2.22417 5.05058V5.18058C2.22417 5.31018 2.32921 5.41521 2.4588 5.41521C2.58839 5.41521 2.69343 5.31015 2.69343 5.18058V5.05061L2.77683 5.06893C2.90308 5.09661 3.02846 5.01693 3.05627 4.89005C3.08408 4.76349 3.00396 4.63836 2.87739 4.61058L2.69343 4.57021V4.15521H3.10843L3.1488 4.33921C3.17658 4.46589 3.3018 4.5458 3.42824 4.51808C3.5548 4.4903 3.63493 4.36518 3.60711 4.23861L3.5888 4.15521H3.7188C3.84839 4.15521 3.95343 4.05015 3.95343 3.92058C3.95343 3.79099 3.84839 3.68596 3.7188 3.68596H3.5888L3.60711 3.60255C3.63493 3.47599 3.5548 3.35086 3.42824 3.32308C3.30177 3.29539 3.17655 3.37543 3.1488 3.50196L3.10843 3.68596H2.69343V3.27096L2.87739 3.23058C3.00396 3.2028 3.08408 3.07771 3.0563 2.95111C3.02852 2.82455 2.90336 2.74455 2.77683 2.77224L2.69343 2.79055V2.66055C2.69343 2.53096 2.58839 2.42593 2.4588 2.42593C2.32921 2.42593 2.22417 2.53099 2.22417 2.66055V2.79055L2.14074 2.77224C2.01399 2.74458 1.88905 2.82458 1.86127 2.95111C1.83349 3.07768 1.91361 3.2028 2.04017 3.23058L2.22417 3.27096V3.68596H1.80917L1.7688 3.50199C1.74099 3.37543 1.61614 3.29539 1.48933 3.32308C1.36277 3.35086 1.28264 3.47596 1.31042 3.60252L1.32874 3.68596H1.19874C1.06914 3.68596 0.964111 3.79102 0.964111 3.92058C0.964111 4.05018 1.06914 4.15521 1.19874 4.15521H1.32874V4.15518Z" fill="#BEAD8E"/>
<path id="Vector_7" d="M14.1831 5.75011C14.1831 5.25589 13.7811 4.8538 13.2868 4.8538C12.7926 4.8538 12.3905 5.25589 12.3905 5.75011C12.3905 6.24433 12.7926 6.64642 13.2868 6.64642C13.7811 6.64642 14.1831 6.24433 14.1831 5.75011ZM12.8598 5.75011C12.8598 5.51464 13.0513 5.32305 13.2868 5.32305C13.5223 5.32305 13.7139 5.51464 13.7139 5.75011C13.7139 5.98558 13.5223 6.17717 13.2868 6.17717C13.0513 6.17717 12.8598 5.98558 12.8598 5.75011Z" fill="#BEAD8E"/>
<path id="Vector_8" d="M11.8732 5.75011C11.8732 5.25589 11.4711 4.8538 10.9769 4.8538C10.4826 4.8538 10.0806 5.25589 10.0806 5.75011C10.0806 6.24433 10.4826 6.64642 10.9769 6.64642C11.4711 6.64642 11.8732 6.24433 11.8732 5.75011ZM10.5498 5.75011C10.5498 5.51464 10.7414 5.32305 10.9769 5.32305C11.2123 5.32305 11.4039 5.51464 11.4039 5.75011C11.4039 5.98558 11.2123 6.17717 10.9769 6.17717C10.7414 6.17717 10.5498 5.98558 10.5498 5.75011Z" fill="#BEAD8E"/>
<path id="Vector_9" d="M2.45878 6.3858C3.81456 6.3858 4.91753 5.2828 4.91753 3.92702C4.91753 2.57124 3.81453 1.46824 2.45878 1.46824C1.10303 1.46824 0 2.57124 0 3.92702C0 5.2828 1.10303 6.3858 2.45878 6.3858V6.3858ZM2.45878 1.93749C3.55578 1.93749 4.44828 2.82999 4.44828 3.92702C4.44828 5.02405 3.55578 5.91655 2.45878 5.91655C1.36175 5.91655 0.46925 5.02405 0.46925 3.92702C0.46925 2.82999 1.36175 1.93749 2.45878 1.93749V1.93749Z" fill="#BEAD8E"/>
<path id="Vector_10" d="M14.9415 3.0929H5.70893C5.57934 3.0929 5.47431 3.19796 5.47431 3.32752C5.47431 3.45708 5.57934 3.56215 5.70893 3.56215H14.9415C15.2664 3.56215 15.5308 3.82649 15.5308 4.15143V9.85708C15.5308 10.182 15.2664 10.4464 14.9415 10.4464H14.1832V8.38752C14.1832 7.94383 13.8222 7.58286 13.3785 7.58286H3.27693C2.83324 7.58286 2.4723 7.94383 2.4723 8.38752V10.4464H1.71393C1.38899 10.4464 1.12465 10.182 1.12465 9.85708V6.79818C1.12465 6.66858 1.01961 6.56355 0.890021 6.56355C0.760427 6.56355 0.655396 6.66861 0.655396 6.79818V9.85708C0.655396 10.4407 1.13024 10.9156 1.71393 10.9156H14.9415C15.5252 10.9156 16 10.4407 16 9.85708V4.15143C16 3.56774 15.5252 3.0929 14.9415 3.0929V3.0929ZM2.94155 8.99749H13.7139V9.50099H2.94155V8.99749ZM3.27693 8.05211H13.3785C13.5635 8.05211 13.7139 8.20258 13.7139 8.38752V8.52824H2.94155V8.38752C2.94155 8.20258 3.09199 8.05211 3.27693 8.05211ZM2.94155 9.97024H13.7139V10.4464H2.94155V9.97024Z" fill="#BEAD8E"/>
</g>
</g>
<defs>
<clipPath id="clip0_1_582">
<rect width="16" height="16" fill="white" transform="translate(0 0.550049)"/>
</clipPath>
</defs>
</svg>
