<svg width="16" height="17" viewBox="0 0 16 17" fill="none" xmlns="http://www.w3.org/2000/svg">
<g id="svg-gobbler - 2022-03-03T175754.588 1" clip-path="url(#clip0_1_676)">
<g id="Group">
<g id="XMLID_1173_">
<g id="XMLID_38_">
<path id="XMLID_44_" d="M10.7707 9.89102C10.6885 9.89102 10.6079 9.92415 10.5498 9.98226C10.4917 10.0407 10.4583 10.1213 10.4583 10.2035C10.4583 10.2857 10.4917 10.3663 10.5498 10.4244C10.6079 10.4825 10.6885 10.516 10.7707 10.516C10.8529 10.516 10.9335 10.4825 10.9916 10.4244C11.0497 10.3663 11.0832 10.2857 11.0832 10.2035C11.0832 10.1213 11.0498 10.0407 10.9916 9.98226C10.9335 9.92411 10.8529 9.89102 10.7707 9.89102Z" fill="#BEAD8E"/>
<path id="XMLID_381_" d="M15.9994 9.51595C15.9994 9.07373 15.7107 8.69785 15.312 8.5663V2.23744C15.312 1.30703 14.555 0.550049 13.6246 0.550049H12.9603C12.1267 0.550049 11.4328 1.15788 11.2973 1.95355C10.6264 2.08779 10.1192 2.68134 10.1192 3.3912V3.73734C10.1192 3.90989 10.2592 4.04982 10.4317 4.04982H12.7393C12.9118 4.04982 13.0517 3.90989 13.0517 3.73734V3.3912C13.0517 2.70244 12.5742 2.12341 11.933 1.96692C12.0529 1.5117 12.468 1.17501 12.9603 1.17501H13.6246C14.2104 1.17501 14.687 1.6516 14.687 2.23744V8.51602H7.97215C7.79569 8.36059 7.56446 8.26604 7.31138 8.26604H4.56381C4.31073 8.26604 4.0795 8.36059 3.90304 8.51602H1.00042C0.449052 8.51602 0.000488281 8.96458 0.000488281 9.51595C0.000488281 9.95817 0.289188 10.3341 0.687943 10.4656V11.6929C0.687943 12.6158 1.01164 13.4645 1.5512 14.1317L1.03126 15.0695C0.769375 15.5419 0.936864 16.1459 1.40465 16.416C1.55839 16.5048 1.72862 16.5501 1.90121 16.5501C1.99083 16.5501 2.0811 16.5378 2.16997 16.5131C2.42983 16.4409 2.64484 16.2711 2.77537 16.035L3.17243 15.3167C3.60719 15.4853 4.0795 15.5781 4.57309 15.5781H11.4268C11.9204 15.5781 12.3927 15.4853 12.8275 15.3167L13.2245 16.0351C13.3551 16.2711 13.5701 16.4409 13.83 16.5131C13.9188 16.5378 14.009 16.55 14.0987 16.55C14.2712 16.55 14.4415 16.5048 14.5953 16.416C15.0631 16.1459 15.2305 15.5419 14.9687 15.0695L14.4487 14.1317C14.9883 13.4645 15.312 12.6158 15.312 11.6929V10.4656C15.7107 10.3341 15.9994 9.95817 15.9994 9.51595V9.51595ZM12.4268 3.3912V3.42486H10.7442V3.3912C10.7442 2.9273 11.1216 2.54992 11.5854 2.54992C12.0493 2.54992 12.4268 2.9273 12.4268 3.3912ZM4.56381 8.891H7.31138C7.51877 8.891 7.68748 9.0597 7.68748 9.26709V12.5158H4.18771V9.26709C4.18771 9.0597 4.35645 8.891 4.56381 8.891ZM1.00042 9.14098H3.57097C3.56575 9.18232 3.56275 9.22435 3.56275 9.26709V9.89093H1.00042C0.793654 9.89093 0.625447 9.72272 0.625447 9.51595C0.625447 9.30919 0.793654 9.14098 1.00042 9.14098ZM2.2284 15.7326C2.17972 15.8207 2.09954 15.8841 2.00257 15.911C1.90558 15.9379 1.80424 15.925 1.71709 15.8748C1.54264 15.774 1.48014 15.5487 1.57785 15.3725L2.0037 14.6044C2.19047 14.7694 2.39314 14.9168 2.60913 15.0439L2.2284 15.7326ZM14.2829 15.8748C14.1957 15.925 14.0943 15.9379 13.9973 15.911C13.9004 15.8841 13.8202 15.8207 13.7715 15.7327L13.3908 15.0439C13.6067 14.9168 13.8094 14.7694 13.9962 14.6044L14.422 15.3725C14.5198 15.5487 14.4573 15.774 14.2829 15.8748ZM14.9995 9.89093H12.1768C12.0042 9.89093 11.8643 10.0309 11.8643 10.2034C11.8643 10.376 12.0042 10.5159 12.1768 10.5159H14.687V11.6929C14.687 13.4906 13.2245 14.9531 11.4268 14.9531H4.57309C2.77543 14.9531 1.3129 13.4906 1.3129 11.6929V10.5159H3.56275V12.8282C3.56275 13.0008 3.70268 13.1407 3.87523 13.1407H7.99996C8.17251 13.1407 8.31244 13.0008 8.31244 12.8282V10.5159H9.36468C9.53723 10.5159 9.67716 10.376 9.67716 10.2034C9.67716 10.0309 9.53723 9.89093 9.36468 9.89093H8.31244V9.26709C8.31244 9.22435 8.30944 9.18232 8.30422 9.14098H14.9995C15.2063 9.14098 15.3745 9.30919 15.3745 9.51595C15.3745 9.72272 15.2063 9.89093 14.9995 9.89093V9.89093Z" fill="#BEAD8E"/>
</g>
</g>
</g>
</g>
<defs>
<clipPath id="clip0_1_676">
<rect width="16" height="16" fill="white" transform="translate(0 0.550049)"/>
</clipPath>
</defs>
</svg>
