<svg width="16" height="17" viewBox="0 0 16 17" fill="none" xmlns="http://www.w3.org/2000/svg">
<g id="svg-gobbler - 2022-03-03T182946.721 1">
<g id="Group">
<g id="Group_2">
<g id="Group_3">
<path id="Vector" d="M16 9.42914C16 8.89989 15.7104 8.42305 15.2442 8.18467C14.7688 7.94155 14.1532 7.81827 13.4146 7.81827H5.38572C5.32791 7.52977 5.19981 7.26764 5.00766 7.05405L3.86906 5.78833C3.58731 5.47511 3.18244 5.28492 2.72906 5.25286L2.52453 5.23839C2.41981 5.23086 2.31341 5.24564 2.21128 5.27989V4.6108C2.21128 4.37642 2.11256 4.16477 1.95475 4.0148C2.11478 3.82299 2.21128 3.57636 2.21128 3.30761C2.21128 2.69795 1.71528 2.20199 1.10566 2.20199C0.496031 2.20199 0 2.69799 0 3.30764C0 3.57642 0.0965 3.82302 0.256531 4.01483C0.0987187 4.16483 0 4.37646 0 4.61083V14.5855C0 14.7581 0.139906 14.898 0.3125 14.898H1.39109C1.55228 14.898 1.68703 14.7755 1.70222 14.615C1.73944 14.2214 1.94753 13.1407 2.46309 12.656H3.29988C3.47247 12.656 3.61238 12.5161 3.61238 12.3435C3.61238 12.171 3.47247 12.031 3.29988 12.031L0.624969 12.031V9.27986L4.79609 9.27977V10.0941C4.79609 10.5759 5.18806 10.9679 5.66991 10.9679H5.66997H15.1262C15.2101 10.9679 15.2946 10.9557 15.375 10.9319V12.031H13.6529C13.6527 12.031 13.6524 12.031 13.6521 12.031H6.04956C5.87697 12.031 5.73706 12.171 5.73706 12.3435C5.73706 12.5161 5.87697 12.656 6.04956 12.656H13.5369C14.0504 13.1394 14.2599 14.2211 14.2978 14.615C14.313 14.7755 14.4477 14.8981 14.6089 14.8981H15.6875C15.8601 14.8981 16 14.7581 16 14.5856V9.42914ZM2.21203 6.30167C2.21669 6.16852 2.19844 6.03092 2.30816 5.93302C2.41853 5.83452 2.55094 5.8668 2.68494 5.8763C2.98019 5.89721 3.22897 6.0113 3.40438 6.20633L4.54297 7.47208C4.72753 7.67721 4.81606 7.96314 4.79222 8.27711C4.78306 8.39799 4.78525 8.50514 4.68337 8.59042C4.59028 8.66836 4.48925 8.65383 4.37719 8.65049C4.06244 8.64105 3.78747 8.52286 3.60291 8.31771L2.46431 7.05199C2.28016 6.8472 2.20253 6.57355 2.21203 6.30167V6.30167ZM0.625 8.65483V4.61083C0.625 4.50189 0.713625 4.41327 0.822563 4.41327H1.38866C1.49759 4.41327 1.58622 4.50189 1.58622 4.61083V8.6548H0.625V8.65483ZM2.21125 7.70511L3.06556 8.65483H2.21125V7.70511ZM1.10563 2.82702C1.37063 2.82702 1.58625 3.04261 1.58625 3.30764C1.58625 3.57267 1.37066 3.78827 1.10563 3.78827C0.840594 3.78827 0.625 3.57267 0.625 3.30764C0.625 3.04261 0.840594 2.82702 1.10563 2.82702ZM1.11881 14.2731H0.625V12.6561H1.67288C1.33469 13.2097 1.18175 13.8945 1.11881 14.2731V14.2731ZM5.66994 10.343C5.53278 10.343 5.42119 10.2314 5.42119 10.0942L5.42106 8.44327H13.4146C14.0533 8.44327 14.5732 8.54349 14.9596 8.74111C15.2158 8.87211 15.375 9.13574 15.375 9.42914V10.093C15.375 10.0934 15.3749 10.0938 15.3749 10.0942C15.3749 10.2314 15.2633 10.343 15.1262 10.343H5.66994V10.343ZM14.8812 14.2731C14.8183 13.8945 14.6653 13.2097 14.3272 12.6561H15.375V14.2731H14.8812Z" fill="#BEAD8E"/>
<path id="Vector_2" d="M4.96347 12.2241C4.89881 12.0665 4.71221 11.9902 4.55534 12.055C4.3979 12.1201 4.32112 12.3058 4.38627 12.4632C4.4514 12.6205 4.63712 12.6974 4.7944 12.6322C4.95137 12.5672 5.02881 12.3811 4.96347 12.2241V12.2241Z" fill="#BEAD8E"/>
</g>
</g>
</g>
</g>
</svg>
