<svg width="16" height="17" viewBox="0 0 16 17" fill="none" xmlns="http://www.w3.org/2000/svg">
<g id="svg-gobbler - 2022-03-03T180356.761 1" clip-path="url(#clip0_1_692)">
<g id="Group">
<g id="Group_2">
<path id="Vector" d="M15.4521 2.72002H13.4245C13.2836 2.20748 12.8092 1.83136 12.2618 1.83136H4.21359C3.6585 1.83136 3.19009 2.20855 3.05053 2.72002H0.547938C0.245813 2.72002 0 2.96583 0 3.26798V3.78264C0 4.08476 0.245813 4.33058 0.547938 4.33058H3.00791V8.74126C3.00791 8.87095 3.11303 8.9761 3.24275 8.9761C3.37247 8.9761 3.47759 8.87095 3.47759 8.74126V3.03705C3.47759 2.63123 3.80775 2.30105 4.21359 2.30105H11.3075C11.15 2.5048 11.0562 2.7602 11.0562 3.03705V11.5396H3.47759V9.6806C3.47759 9.55091 3.37244 9.44576 3.24275 9.44576C3.11306 9.44576 3.00791 9.55091 3.00791 9.6806V14.5642C3.00791 14.9527 3.32394 15.2687 3.71241 15.2687H10.8213C11.2098 15.2687 11.5258 14.9527 11.5258 14.5642V11.1437H12.763C13.1514 11.1437 13.4675 10.8277 13.4675 10.4392V6.32798C13.4675 6.19829 13.3623 6.09314 13.2326 6.09314C13.1029 6.09314 12.9978 6.19826 12.9978 6.32798V10.4392C12.9978 10.5687 12.8924 10.6741 12.7629 10.6741H11.5258V4.33058H12.9978V5.38864C12.9978 5.51832 13.1029 5.62348 13.2326 5.62348C13.3623 5.62348 13.4675 5.51836 13.4675 5.38864V4.33058H15.452C15.7542 4.33058 16 4.08476 16 3.78264V3.26798C16 2.96583 15.7542 2.72002 15.4521 2.72002V2.72002ZM0.547938 3.86092C0.504781 3.86092 0.469656 3.8258 0.469656 3.78264V3.26798C0.469656 3.22483 0.504781 3.1897 0.547938 3.1897H3.00791V3.86092H0.547938ZM12.2618 2.30105C12.5502 2.30105 12.8051 2.47217 12.9248 2.72005H11.5977C11.7163 2.47245 11.9694 2.30105 12.2618 2.30105ZM10.8213 14.799H3.71244C3.58297 14.799 3.47759 14.6937 3.47759 14.5642V13.5549H8.34966C8.47934 13.5549 8.5845 13.4498 8.5845 13.3201C8.5845 13.1904 8.47934 13.0852 8.34966 13.0852H3.47759V12.0093H11.0562V13.0852H9.289C9.15931 13.0852 9.05416 13.1904 9.05416 13.3201C9.05416 13.4498 9.15931 13.5549 9.289 13.5549H11.0562V14.5642C11.0561 14.6937 10.9508 14.799 10.8213 14.799ZM15.5303 3.78264C15.5303 3.8258 15.4952 3.86092 15.4521 3.86092H11.5258V3.1897H15.4521C15.4952 3.1897 15.5303 3.22483 15.5303 3.26798V3.78264Z" fill="#BEAD8E"/>
</g>
</g>
</g>
<defs>
<clipPath id="clip0_1_692">
<rect width="16" height="16" fill="white" transform="translate(0 0.550049)"/>
</clipPath>
</defs>
</svg>
