<svg width="16" height="17" viewBox="0 0 16 17" fill="none" xmlns="http://www.w3.org/2000/svg">
<g id="svg-gobbler - 2022-03-03T183336.988 1" clip-path="url(#clip0_1_698)">
<g id="Group">
<g id="Group_2">
<g id="Group_3">
<path id="Vector" d="M13.4178 7.24421C13.2915 7.11796 13.0868 7.11796 12.9604 7.24421C12.3681 7.83653 11.5207 8.10559 10.694 7.96378C10.5178 7.93375 10.3507 8.05184 10.3205 8.22788C10.2903 8.40391 10.4085 8.57116 10.5846 8.60132C10.7664 8.6325 10.9488 8.64775 11.1303 8.64775C11.9807 8.64775 12.8075 8.31194 13.4178 7.70162C13.5442 7.57534 13.5442 7.37055 13.4178 7.24421Z" fill="#BEAD8E"/>
</g>
</g>
<g id="Group_4">
<g id="Group_5">
<path id="Vector_2" d="M14.576 1.97374C12.6777 0.0754867 9.58858 0.0754555 7.68989 1.97377C6.29189 3.37205 5.88317 5.48342 6.63914 7.29395L0.0947323 13.8384C0.0301697 13.903 -0.0040803 13.9918 0.000388454 14.0829L0.101295 16.1418C0.10942 16.308 0.242326 16.4409 0.408545 16.449L2.46711 16.5496C2.47242 16.5499 2.47764 16.55 2.48292 16.55C2.56845 16.55 2.65073 16.5161 2.71155 16.4553L3.41758 15.7496C3.47827 15.6889 3.51236 15.6067 3.51236 15.5209V14.0066H5.02661C5.11239 14.0066 5.19467 13.9725 5.2553 13.9119L6.04667 13.1205C6.10733 13.0598 6.14139 12.9776 6.14139 12.8918V11.3775H7.65564C7.74143 11.3775 7.82371 11.3435 7.88433 11.2828L9.2563 9.91086C11.0671 10.6666 13.1782 10.2578 14.5762 8.86017C14.5762 8.86014 14.5762 8.86014 14.5762 8.86011C16.4746 6.96145 16.4744 3.87224 14.576 1.97374ZM14.1189 8.4027C12.8594 9.66205 10.9322 9.99561 9.3234 9.23279C9.19977 9.17426 9.05283 9.19967 8.95615 9.29636L7.52174 10.7308H5.81802C5.63939 10.7308 5.49461 10.8756 5.49461 11.0542V12.7579L4.89267 13.3598H3.18892C3.0103 13.3598 2.86552 13.5046 2.86552 13.6832V15.3869L2.35558 15.8966L0.733014 15.8173L0.653483 14.1945L7.25374 7.5942C7.35043 7.49751 7.37586 7.35045 7.31727 7.22692C6.55424 5.61823 6.88783 3.69095 8.14733 2.43117C9.79374 0.78508 12.4724 0.784987 14.1186 2.43114C15.7649 4.07742 15.765 6.7563 14.1189 8.4027Z" fill="#BEAD8E"/>
</g>
</g>
<g id="Group_6">
<g id="Group_7">
<path id="Vector_3" d="M12.8936 3.65649C12.6084 3.37124 12.2292 3.21415 11.8258 3.21415C11.4224 3.21415 11.0432 3.37124 10.7579 3.65655C10.1695 4.2453 10.1695 5.20324 10.7581 5.79214C11.0524 6.08636 11.4391 6.23345 11.8258 6.23345C12.2125 6.23345 12.5992 6.08636 12.8935 5.79217C12.8936 5.79214 12.8936 5.79214 12.8936 5.79211C13.1788 5.50689 13.336 5.12764 13.336 4.72427C13.336 4.3209 13.1789 3.94174 12.8936 3.65649ZM12.4362 5.33474C12.0996 5.67108 11.5519 5.67099 11.2155 5.33483C10.879 4.99818 10.879 4.45043 11.2154 4.11393C11.3785 3.95087 11.5952 3.86105 11.8258 3.86105C12.0564 3.86105 12.2732 3.95087 12.4363 4.11393C12.5993 4.27696 12.6891 4.49374 12.6891 4.72433C12.6891 4.95493 12.5993 5.17168 12.4362 5.33474Z" fill="#BEAD8E"/>
</g>
</g>
<g id="Group_8">
<g id="Group_9">
<path id="Vector_4" d="M13.7869 6.42871C13.3707 6.42871 13.37 7.07555 13.7869 7.07555C14.2031 7.07555 14.2038 6.42871 13.7869 6.42871Z" fill="#BEAD8E"/>
</g>
</g>
</g>
</g>
<defs>
<clipPath id="clip0_1_698">
<rect width="16" height="16" fill="white" transform="translate(0 0.550049)"/>
</clipPath>
</defs>
</svg>
