<svg width="16" height="17" viewBox="0 0 16 17" fill="none" xmlns="http://www.w3.org/2000/svg">
<g id="svg-gobbler - 2022-03-03T183600.191 1" clip-path="url(#clip0_1_724)">
<g id="Group">
<g id="Group_2">
<g id="Group_3">
<path id="Vector" d="M10.48 12.1283C10.052 12.1283 9.70386 12.4765 9.70386 12.9045C9.70386 13.3324 10.052 13.6807 10.48 13.6807C10.908 13.6807 11.2562 13.3324 11.2562 12.9045C11.2562 12.4765 10.908 12.1283 10.48 12.1283ZM10.48 13.2118C10.3105 13.2118 10.1727 13.074 10.1727 12.9045C10.1727 12.735 10.3105 12.5971 10.48 12.5971C10.6495 12.5971 10.7874 12.735 10.7874 12.9045C10.7874 13.074 10.6495 13.2118 10.48 13.2118Z" fill="#BEAD8E"/>
</g>
</g>
<g id="Group_4">
<g id="Group_5">
<path id="Vector_2" d="M14.5193 15.1793H14.3698C14.4019 15.0443 14.3805 15.1432 14.3868 12.7548C14.3868 12.6253 14.2819 12.5204 14.1524 12.5204C14.0229 12.5204 13.918 12.6254 13.918 12.7548V15.0387C13.918 15.1149 13.8536 15.1793 13.7774 15.1793H7.1825C7.10628 15.1793 7.04184 15.1149 7.04184 15.0387C7.04184 14.6622 7.04184 11.3064 7.04184 10.7704C7.04184 10.6942 7.10625 10.6298 7.1825 10.6298H13.7774C13.8536 10.6298 13.918 10.6942 13.918 10.7704V11.6609C13.918 11.7904 14.023 11.8953 14.1524 11.8953C14.2819 11.8953 14.3868 11.7904 14.3868 11.6609V10.7704C14.3868 10.4343 14.1134 10.1609 13.7774 10.1609H8.80666L8.28391 9.98313C8.24441 9.96957 8.21791 9.93244 8.21791 9.89063V9.31613C9.06875 8.81044 9.6155 7.94013 9.71528 6.98991C10.4327 7.02316 10.9244 6.33819 10.6268 5.7442V3.83317C10.6268 2.45117 9.87516 1.97042 9.64553 1.85579C8.32122 0.274855 5.59156 0.0448553 3.91434 1.63367C3.75965 1.77892 3.86359 2.03898 4.07487 2.03898C4.24753 2.03898 4.22119 1.9181 4.75481 1.57117C4.79434 1.54551 4.87097 1.50029 4.86781 1.50217C6.25 0.672511 8.28891 0.926667 9.31678 2.1941C9.3431 2.22651 9.37513 2.25042 9.41425 2.26504C9.44463 2.27723 10.1579 2.57742 10.1579 3.8332V5.3127C10.0278 5.25763 9.88528 5.22941 9.73328 5.23366V4.46691C9.73328 4.27241 9.58675 4.11167 9.39247 4.09292C8.99853 4.05488 8.77778 3.7982 8.66194 3.5896C8.51697 3.32854 8.17088 3.26598 7.94397 3.45988C6.89875 4.35341 5.69531 4.39879 4.86965 4.27966C4.244 4.18932 3.66569 4.61635 3.56512 5.23395C3.41337 5.22738 3.26337 5.25423 3.12553 5.31263C3.14022 4.58263 3.01625 3.79242 3.59453 2.78407C3.65894 2.67176 3.62009 2.52854 3.50784 2.4641C3.3955 2.39967 3.25228 2.43854 3.18787 2.55079C2.83518 3.16579 2.66465 3.87626 2.66009 4.38123C2.65425 4.53241 2.65778 4.47707 2.65675 5.7441C2.35868 6.33891 2.85237 7.02301 3.56822 6.98982C3.67094 7.96773 4.2505 8.86882 5.15312 9.36651V9.89054C5.15312 9.93232 5.12656 9.96944 5.08722 9.98297C4.15806 10.3078 5.25303 9.91282 2.81697 10.7767C2.60431 10.8397 2.65147 10.8233 2.56753 10.8575C2.04503 11.077 1.72212 11.4966 1.61775 12.0128C0.886527 15.6855 0.914308 15.4773 0.919277 15.677C0.94209 16.2559 1.31246 16.55 1.88284 16.55C1.89212 16.55 6.68978 16.55 6.68547 16.55C7.16103 16.55 6.97812 16.55 7.45366 16.55C7.58316 16.55 7.68806 16.445 7.68806 16.3156C7.68806 16.1861 7.58313 16.0812 7.45366 16.0812H6.6855C6.35784 16.0811 6.24934 15.6481 6.44078 15.6481C6.96709 15.6481 14.22 15.6481 14.5193 15.6481C14.7111 15.6481 14.6013 16.0812 14.2746 16.0812H8.54753C8.41803 16.0812 8.31313 16.1861 8.31313 16.3156C8.31313 16.4451 8.41806 16.55 8.54753 16.55H14.2745C14.7199 16.55 15.0822 16.1876 15.0822 15.7422C15.0823 15.4318 14.8297 15.1793 14.5193 15.1793ZM9.73328 5.70263C10.0036 5.68835 10.2456 5.87045 10.2456 6.11201C10.2456 6.35595 10.001 6.53557 9.73328 6.52141V5.70263ZM3.55012 6.52138C3.27984 6.53573 3.03781 6.35357 3.03781 6.11201C3.03781 5.86807 3.28237 5.68845 3.55012 5.7026V6.52138V6.52138ZM4.02269 6.79044C4.01675 6.68198 4.01965 6.72119 4.01894 5.51304C4.02597 5.47366 3.9685 5.15148 4.25422 4.90401C4.40484 4.77354 4.60478 4.71517 4.80265 4.7437C5.724 4.87679 7.06988 4.82379 8.24856 3.81626L8.25203 3.81717C8.47844 4.22491 8.83572 4.48232 9.26444 4.54907C9.26444 6.66791 9.29191 6.87448 9.18656 7.29391C9.12175 7.55313 9.00991 7.81482 8.87385 8.03444C7.49822 10.2087 4.15087 9.35391 4.02269 6.79044ZM3.06247 16.0812H1.88275C1.48147 16.0812 1.40953 15.8913 1.39171 15.7258C1.37315 15.5533 1.4114 15.476 1.57281 14.6386H3.06247V16.0812ZM6.44069 15.1793V15.1793C6.05978 15.1793 5.76094 15.5483 5.92341 16.0099C5.93012 16.029 5.9415 16.0581 5.95225 16.0813H3.53131C3.53131 14.4592 3.53131 15.5221 3.53131 13.8718C3.53131 13.7423 3.42637 13.6374 3.2969 13.6374C3.1674 13.6374 3.0625 13.7424 3.0625 13.8718V14.1698H1.66615C2.10834 11.9504 2.08297 12.0433 2.13118 11.9154C2.22768 11.662 2.37143 11.5137 2.57772 11.3776C2.76112 11.2718 2.7819 11.2777 2.95409 11.2251C2.9665 11.2216 2.88368 11.2504 4.30528 10.7468C4.30528 10.7468 4.30534 10.7468 4.3054 10.7468L5.15444 10.4556C5.16012 10.8624 5.42075 11.2209 5.80725 11.3503C6.05194 11.4323 6.30922 11.4774 6.57306 11.4856C6.58794 15.0524 6.55172 15.0203 6.58944 15.1793H6.44069V15.1793ZM6.57303 10.7703C6.57303 10.7763 6.57303 11.0199 6.57303 11.0168C6.36003 11.0089 6.15291 10.9717 5.95609 10.9057C5.75669 10.8389 5.62272 10.6526 5.62272 10.442C5.62216 9.87322 5.62362 10.2205 5.62184 9.57532C6.61225 9.91979 7.39172 9.64651 7.44469 9.64247L7.44416 9.64057L7.44731 9.63969L7.44788 9.6416C7.52953 9.61504 7.55697 9.61701 7.74906 9.5431C7.74906 9.69857 7.74906 10.0019 7.74906 10.1608H7.18253C6.84647 10.1608 6.57303 10.4343 6.57303 10.7703Z" fill="#BEAD8E"/>
</g>
</g>
</g>
</g>
<defs>
<clipPath id="clip0_1_724">
<rect width="16" height="16" fill="white" transform="translate(0 0.550049)"/>
</clipPath>
</defs>
</svg>
