<svg width="16" height="17" viewBox="0 0 16 17" fill="none" xmlns="http://www.w3.org/2000/svg">
<g id="svg-gobbler - 2022-03-03T175828.668 1" clip-path="url(#clip0_1_596)">
<g id="Group">
<g id="Group_2">
<g id="Group_3">
<path id="Vector" d="M8 4.1125C5.55316 4.1125 3.5625 6.10316 3.5625 8.55C3.5625 10.9968 5.55316 12.9875 8 12.9875C10.4468 12.9875 12.4375 10.9968 12.4375 8.55C12.4375 6.10316 10.4468 4.1125 8 4.1125ZM8 12.3625C5.89778 12.3625 4.1875 10.6522 4.1875 8.55C4.1875 6.44778 5.89778 4.7375 8 4.7375C10.1022 4.7375 11.8125 6.44778 11.8125 8.55C11.8125 10.6522 10.1022 12.3625 8 12.3625Z" fill="#BEAD8E"/>
</g>
</g>
<g id="Group_4">
<g id="Group_5">
<path id="Vector_2" d="M15.8341 0.586499C15.732 0.532312 15.6083 0.538843 15.5125 0.603531C13.9784 1.64012 13.0625 3.36437 13.0625 5.21591V9.27066C13.0625 9.70556 13.2319 10.1144 13.5394 10.422L14.125 11.0076V15.6125C14.125 16.1294 14.5456 16.55 15.0625 16.55C15.5794 16.55 16 16.1294 16 15.6125V0.862499C16 0.746906 15.9362 0.640749 15.8341 0.586499ZM15.375 15.6125C15.375 15.7848 15.2348 15.925 15.0625 15.925C14.8902 15.925 14.75 15.7848 14.75 15.6125V10.8781C14.75 10.7952 14.7171 10.7158 14.6585 10.6572L13.9813 9.98C13.7918 9.79053 13.6875 9.53862 13.6875 9.27066V5.21591C13.6875 3.77903 14.3088 2.42859 15.375 1.49678V15.6125V15.6125Z" fill="#BEAD8E"/>
</g>
</g>
<g id="Group_6">
<g id="Group_7">
<path id="Vector_3" d="M7.28305 6.07165C7.2153 5.91294 7.03161 5.83922 6.87292 5.90694C5.81251 6.35962 5.12732 7.39709 5.12732 8.54999C5.12732 8.72255 5.26723 8.86249 5.43982 8.86249C5.61241 8.86249 5.75232 8.72255 5.75232 8.54999C5.75232 7.64784 6.28851 6.836 7.11833 6.48178C7.27705 6.41403 7.3508 6.2304 7.28305 6.07165Z" fill="#BEAD8E"/>
</g>
</g>
<g id="Group_8">
<g id="Group_9">
<path id="Vector_4" d="M8.00002 5.67734L7.98424 5.67737C7.81165 5.67853 7.67268 5.81937 7.67384 5.99197C7.67499 6.16384 7.81468 6.30237 7.9863 6.30237C7.98699 6.30237 7.98774 6.30237 7.98843 6.30237L8.00002 6.30234C8.17262 6.30234 8.31252 6.16244 8.31252 5.98984C8.31252 5.81725 8.17262 5.67734 8.00002 5.67734Z" fill="#BEAD8E"/>
</g>
</g>
<g id="Group_10">
<g id="Group_11">
<path id="Vector_5" d="M12.332 4.43997C11.7798 3.85822 11.129 3.40047 10.3976 3.07947C9.64026 2.74709 8.83357 2.57856 8.00001 2.57856C7.04751 2.57856 6.13701 2.79625 5.29382 3.22562C5.14004 3.30393 5.07882 3.49209 5.15713 3.6459C5.23547 3.79965 5.42363 3.86084 5.57744 3.78256C6.33194 3.39837 7.14701 3.20356 8.00001 3.20356C9.48113 3.20356 10.8586 3.79543 11.8786 4.87022C11.9401 4.93497 12.0226 4.96759 12.1054 4.96759C12.1826 4.96759 12.26 4.93912 12.3204 4.88175C12.4456 4.76293 12.4508 4.56515 12.332 4.43997Z" fill="#BEAD8E"/>
</g>
</g>
<g id="Group_12">
<g id="Group_13">
<path id="Vector_6" d="M12.6354 11.8118C12.5 11.7048 12.3035 11.7278 12.1964 11.8632C11.1748 13.1554 9.64524 13.8964 8.00002 13.8964C6.97033 13.8964 5.97074 13.6032 5.1093 13.0484C4.96424 12.9549 4.7708 12.9968 4.67736 13.1419C4.58393 13.287 4.6258 13.4804 4.7709 13.5738C5.73346 14.1938 6.85008 14.5214 8.00002 14.5214C9.83752 14.5214 11.5457 13.6938 12.6867 12.2508C12.7937 12.1154 12.7708 11.9189 12.6354 11.8118Z" fill="#BEAD8E"/>
</g>
</g>
<g id="Group_14">
<g id="Group_15">
<path id="Vector_7" d="M4.24868 12.3601L4.24409 12.3548C4.24243 12.3528 4.24078 12.3507 4.23906 12.3487C4.1279 12.2167 3.93078 12.1998 3.79875 12.3109C3.66672 12.4221 3.64978 12.6192 3.76097 12.7513L3.764 12.7549L3.76416 12.7548C3.76747 12.7589 3.7709 12.7631 3.77447 12.7673C3.83628 12.8393 3.92372 12.8762 4.01172 12.8762C4.08378 12.8762 4.15618 12.8514 4.21512 12.8008C4.34606 12.6884 4.36109 12.4911 4.24868 12.3601Z" fill="#BEAD8E"/>
</g>
</g>
<g id="Group_16">
<g id="Group_17">
<path id="Vector_8" d="M3.875 0.549999C3.70241 0.549999 3.5625 0.689905 3.5625 0.862499V4.2375H2.99975C2.99978 4.23575 3 4.23406 3 4.23228V0.862499C3 0.689905 2.86009 0.549999 2.6875 0.549999C2.51491 0.549999 2.375 0.689905 2.375 0.862499V4.23228C2.375 4.23403 2.37525 4.23575 2.37525 4.2375H1.81225C1.81228 4.23575 1.8125 4.23406 1.8125 4.23228V0.862499C1.8125 0.689905 1.67259 0.549999 1.5 0.549999C1.32741 0.549999 1.1875 0.689905 1.1875 0.862499V4.23228C1.1875 4.23403 1.18775 4.23575 1.18775 4.2375H0.625V0.862499C0.625 0.689905 0.485094 0.549999 0.3125 0.549999C0.139906 0.549999 0 0.689905 0 0.862499V4.675C0 5.44156 0.465125 6.13341 1.15625 6.43247V15.6125C1.15625 16.1294 1.57681 16.55 2.09375 16.55C2.61069 16.55 3.03125 16.1294 3.03125 15.6125V6.43247C3.72237 6.13341 4.1875 5.44156 4.1875 4.675V0.862499C4.1875 0.689905 4.04759 0.549999 3.875 0.549999ZM2.632 5.91312C2.49831 5.95175 2.40625 6.07416 2.40625 6.21334V15.6125C2.40625 15.7848 2.26606 15.925 2.09375 15.925C1.92144 15.925 1.78125 15.7848 1.78125 15.6125V6.21334C1.78125 6.07416 1.68922 5.95175 1.5555 5.91312C1.06853 5.77241 0.712344 5.35441 0.639125 4.8625H3.54834C3.47516 5.35441 3.11897 5.77241 2.632 5.91312Z" fill="#BEAD8E"/>
</g>
</g>
</g>
</g>
<defs>
<clipPath id="clip0_1_596">
<rect width="16" height="16" fill="white" transform="translate(0 0.549999)"/>
</clipPath>
</defs>
</svg>
