<svg width="16" height="16" viewBox="0 0 16 16" fill="none" xmlns="http://www.w3.org/2000/svg">
<g id="svg-gobbler - 2022-03-03T175907.963 1" clip-path="url(#clip0_1_624)">
<g id="Group">
<g id="Group_2">
<g id="Group_3">
<path id="Vector" d="M4.65462 3.42723C5.21796 3.67983 5.44459 4.27701 5.51587 4.52205C5.55046 4.64095 5.6569 4.72086 5.78068 4.72086C5.90446 4.72086 6.01087 4.64095 6.04549 4.52201C6.11677 4.27698 6.34337 3.6798 6.90677 3.4272C7.00602 3.3827 7.07018 3.2838 7.07018 3.17526C7.07018 3.06673 7.00605 2.96783 6.90677 2.9233C6.3434 2.6707 6.1168 2.07351 6.04549 1.82848C6.0109 1.70958 5.90446 1.62967 5.78068 1.62967C5.6569 1.62967 5.55046 1.70958 5.51587 1.82848C5.44459 2.07351 5.21799 2.6707 4.65465 2.9233C4.55537 2.9678 4.49121 3.0667 4.49121 3.17526C4.49121 3.28383 4.55537 3.38273 4.65462 3.42723V3.42723ZM5.78068 2.42126C5.91071 2.6742 6.11084 2.95967 6.41118 3.17526C6.11084 3.39086 5.91074 3.67633 5.78068 3.92926C5.65065 3.67633 5.45055 3.39086 5.15018 3.17526C5.45052 2.95967 5.65065 2.6742 5.78068 2.42126Z" fill="#BEAD8E"/>
<path id="Vector_2" d="M4.2278 4.75351C4.33293 4.70639 4.40083 4.60173 4.40083 4.48689C4.40083 4.37205 4.3329 4.26736 4.2278 4.22026C3.41502 3.85586 3.09002 3.00095 2.98802 2.65026C2.95143 2.52442 2.83883 2.43989 2.70786 2.43989C2.57689 2.43989 2.4643 2.52445 2.42771 2.65026C2.32571 3.00092 2.00071 3.85583 1.18792 4.22026C1.0828 4.26739 1.01489 4.37205 1.01489 4.48689C1.01489 4.60173 1.08283 4.70642 1.18792 4.75351C2.00071 5.11795 2.32571 5.97286 2.42774 6.32351C2.46433 6.44933 2.57693 6.53386 2.70789 6.53386C2.83883 6.53386 2.95143 6.44933 2.98805 6.32348C3.09002 5.97286 3.41505 5.11795 4.2278 4.75351ZM2.70786 5.73514C2.52677 5.33242 2.20936 4.82629 1.67683 4.48686C2.20936 4.14745 2.5268 3.64133 2.70789 3.23861C2.88899 3.64133 3.20643 4.14745 3.73893 4.48686C3.2064 4.82629 2.88896 5.33242 2.70786 5.73514Z" fill="#BEAD8E"/>
<path id="Vector_3" d="M14.9838 15.4565L14.9348 14.7706C14.9346 14.7684 14.9345 14.7662 14.9342 14.764C14.8247 13.6689 14.6198 12.5615 14.6104 12.5107C14.4629 11.4763 13.8207 11.0018 13.3071 10.786C13.1934 10.7383 13.0814 10.701 12.975 10.672V4.39117C12.975 4.26195 12.8703 4.15717 12.741 4.15717C12.6118 4.15717 12.507 4.26192 12.507 4.39117V10.5844C12.3661 10.5696 12.2687 10.5698 12.2416 10.5703C12.2146 10.5699 12.1171 10.5696 11.9761 10.5845V2.60201H12.507V3.2857C12.507 3.41492 12.6118 3.5197 12.741 3.5197C12.8702 3.5197 12.975 3.41495 12.975 3.2857V0.73342C12.975 0.328983 12.646 -4.86374e-05 12.2416 -4.86374e-05C11.8371 -4.86374e-05 11.5081 0.328983 11.5081 0.73342V10.6721C11.4017 10.7011 11.2897 10.7383 11.1761 10.786C11.055 10.8369 10.9269 10.9024 10.7998 10.9859L10.8834 9.41854C11.0846 9.36445 11.2334 9.18098 11.2334 8.96295V8.31758C11.2334 8.05717 11.0215 7.84533 10.7611 7.84533H10.6755C10.7139 7.74442 10.7345 7.63608 10.7345 7.52476C10.7345 7.02801 10.3303 6.62392 9.83362 6.62392C9.72327 6.62392 9.61624 6.64345 9.51587 6.68136C9.31087 6.38592 8.96868 6.19998 8.60008 6.19998C8.47896 6.19998 8.35902 6.22001 8.2453 6.25833C8.09346 5.62367 7.5214 5.15048 6.84087 5.15048C6.16033 5.15048 5.58824 5.62364 5.4364 6.25833C5.32268 6.22001 5.20274 6.19998 5.08162 6.19998C4.46802 6.19998 3.9688 6.69917 3.9688 7.31276C3.9688 7.50123 4.0158 7.68383 4.10021 7.84533H3.94215C3.68174 7.84533 3.4699 8.05717 3.4699 8.31754V8.96295C3.4699 9.18098 3.61862 9.36445 3.8198 9.41854L3.92612 11.4105L3.23462 12.102C3.10712 12.2295 3.03687 12.3991 3.03687 12.5794C3.03687 12.7598 3.10708 12.9293 3.23462 13.0568C3.36624 13.1884 3.53912 13.2542 3.71199 13.2542C3.81805 13.2542 3.92402 13.2292 4.02055 13.1796L4.11108 14.876C4.14474 15.5063 4.66546 16 5.29655 16H9.40677C9.53408 16 9.65677 15.9795 9.77202 15.9423C9.84358 15.9794 9.92346 16 10.0053 16H14.4778C14.6181 16 14.7535 15.941 14.8491 15.8384C14.9446 15.7357 14.9938 15.5965 14.9838 15.4565V15.4565ZM11.9761 0.73342C11.9761 0.587045 12.0952 0.467951 12.2416 0.467951C12.3879 0.467951 12.507 0.587045 12.507 0.73342V2.13405H11.9761V0.73342ZM12.2351 11.0382C12.2392 11.0384 12.2438 11.0383 12.2479 11.0382C12.3123 11.0368 13.7407 11.0174 14.0941 12.3174H10.7287L10.7658 11.6227C11.3186 11.0262 12.1838 11.037 12.2351 11.0382ZM5.08165 6.66798C5.23002 6.66798 5.36955 6.71711 5.48515 6.81005C5.55627 6.86723 5.65408 6.87783 5.73577 6.83733C5.81749 6.7968 5.86821 6.71245 5.86568 6.62126L5.86533 6.60983C5.86515 6.6047 5.86493 6.59961 5.86493 6.59445C5.86493 6.05633 6.30274 5.61851 6.8409 5.61851C7.37905 5.61851 7.81683 6.05633 7.81683 6.59445C7.81683 6.59961 7.81662 6.60473 7.81643 6.60983L7.81608 6.62126C7.81358 6.71245 7.86427 6.79676 7.94599 6.83733C8.02771 6.87786 8.12555 6.86723 8.19662 6.81005C8.31221 6.71711 8.45171 6.66798 8.60012 6.66798C8.86612 6.66798 9.1084 6.83508 9.20293 7.0838C9.2294 7.15339 9.2874 7.20623 9.35915 7.22614C9.4309 7.24605 9.5078 7.23058 9.56637 7.18451C9.6433 7.12395 9.73574 7.09195 9.83365 7.09195C10.0723 7.09195 10.2665 7.28614 10.2665 7.52483C10.2665 7.64801 10.2144 7.76386 10.1246 7.84539H4.69624C4.53702 7.72395 4.43683 7.52129 4.43683 7.31283C4.4368 6.95723 4.72608 6.66798 5.08165 6.66798V6.66798ZM3.93793 8.31754C3.93793 8.3152 3.93983 8.3133 3.94218 8.3133H10.7611C10.7635 8.3133 10.7654 8.3152 10.7654 8.31754V8.96292C10.7654 8.96526 10.7635 8.96717 10.7611 8.96717H8.81249C8.5019 8.96717 8.2269 9.15198 8.1119 9.43798C7.98643 9.75014 7.68802 9.9518 7.35165 9.9518C7.33312 9.9518 7.3148 9.95083 7.29655 9.94958L7.73493 9.5112C7.86243 9.3837 7.93268 9.21417 7.93268 9.03383C7.93268 8.85348 7.86246 8.68395 7.73493 8.55645C7.47171 8.29323 7.04343 8.29323 6.78021 8.55645L6.26912 9.06754C6.15693 9.00314 6.02743 8.96714 5.89083 8.96714H3.94218C3.93983 8.96714 3.93793 8.96523 3.93793 8.96289V8.31754ZM5.9008 9.43589L4.37105 10.9656L4.28937 9.43517H5.8908C5.89424 9.43517 5.89746 9.4358 5.9008 9.43589ZM9.40677 15.532H5.29655C4.91424 15.532 4.5988 15.2329 4.57843 14.8511L4.4678 12.7784L5.47499 11.7712C5.56637 11.6798 5.56637 11.5317 5.47499 11.4403C5.38362 11.3489 5.23546 11.3489 5.14408 11.4403L3.85849 12.7259C3.77774 12.8066 3.64633 12.8066 3.56558 12.7259C3.48483 12.6451 3.48483 12.5137 3.56558 12.433L7.11112 8.88745C7.19187 8.80667 7.32324 8.80667 7.40402 8.88745C7.48477 8.9682 7.48477 9.09961 7.40402 9.18036L5.93462 10.6498C5.84324 10.7411 5.84324 10.8893 5.93462 10.9807C6.02599 11.072 6.17415 11.072 6.26552 10.9807L6.90555 10.3406C7.04549 10.392 7.1959 10.4198 7.35165 10.4198C7.88012 10.4198 8.34899 10.103 8.54612 9.61258C8.58943 9.50483 8.69399 9.4352 8.81246 9.4352H10.4139L10.1249 14.8512C10.1045 15.2329 9.78908 15.532 9.40677 15.532V15.532ZM14.5066 15.5195C14.5012 15.5251 14.4919 15.532 14.4778 15.532H13.7468C13.6747 14.519 13.4808 13.7664 13.472 13.7327C13.4394 13.6077 13.3117 13.5327 13.1865 13.5653C13.0615 13.598 12.9866 13.7258 13.0192 13.8508C13.0212 13.8585 13.2061 14.5763 13.2775 15.532H12.4756V13.7917C12.4756 13.6625 12.3708 13.5577 12.2416 13.5577C12.1123 13.5577 12.0076 13.6625 12.0076 13.7917V15.532H11.2056C11.2768 14.5812 11.4609 13.8625 11.4639 13.8508C11.4966 13.7258 11.4216 13.598 11.2966 13.5654C11.1716 13.5326 11.0437 13.6077 11.0111 13.7327C11.0023 13.7664 10.8084 14.519 10.7363 15.532H10.351C10.4909 15.3485 10.579 15.1229 10.5922 14.8761L10.7037 12.7854H14.1841C14.2478 13.1499 14.3856 13.9821 14.4682 14.8073L14.517 15.4899C14.518 15.504 14.5119 15.5137 14.5066 15.5195V15.5195Z" fill="#BEAD8E"/>
</g>
</g>
</g>
</g>
<defs>
<clipPath id="clip0_1_624">
<rect width="16" height="16" fill="white"/>
</clipPath>
</defs>
</svg>
