<svg width="16" height="17" viewBox="0 0 16 17" fill="none" xmlns="http://www.w3.org/2000/svg">
<g id="svg-gobbler - 2022-03-03T175957.732 1" clip-path="url(#clip0_1_634)">
<g id="Group">
<g id="Group_2">
<path id="Vector" d="M8.20756 5.25838L10.0835 5.79952H10.0835C10.1447 5.81715 10.2069 5.8259 10.2688 5.8259C10.3797 5.8259 10.4895 5.79783 10.5894 5.7427C10.7449 5.65682 10.8576 5.51553 10.9069 5.34486C11.0085 4.99251 10.8045 4.6232 10.4522 4.52157L8.57625 3.98043C8.40571 3.9312 8.22597 3.95136 8.07043 4.03725C7.91491 4.12313 7.80215 4.26442 7.75293 4.43509C7.6513 4.78737 7.85525 5.15672 8.20756 5.25838V5.25838ZM8.20331 4.56495C8.21785 4.51457 8.25113 4.47288 8.29704 4.44753C8.34298 4.42215 8.39602 4.41625 8.44637 4.43075L10.3223 4.97189C10.4263 5.00189 10.4865 5.11093 10.4565 5.21494C10.442 5.26532 10.4087 5.30701 10.3628 5.33236C10.3168 5.35773 10.2638 5.36367 10.2134 5.34914H10.2135L8.33751 4.808C8.2335 4.778 8.17331 4.66899 8.20331 4.56495Z" fill="#BEAD8E"/>
<path id="Vector_2" d="M14.8339 13.085C14.7138 12.7683 14.4538 12.3731 13.8924 12.1374C14.1092 11.8666 14.3636 11.407 14.3636 10.7401C14.3636 10.6107 14.2587 10.5058 14.1292 10.5058C13.9998 10.5058 13.8948 10.6107 13.8948 10.7401C13.8948 11.2432 13.7173 11.5925 13.5595 11.8037C13.3559 11.3287 13.0047 10.9925 12.5429 10.841C12.4975 10.8261 12.4512 10.813 12.4043 10.8018V6.23416C12.4043 6.1579 12.3672 6.08646 12.3049 6.04255C12.2425 5.99864 12.1628 5.98779 12.0909 6.01348L11.8703 6.09243C12.0082 5.18735 11.9557 4.30802 11.7159 3.58024C11.426 2.70072 10.8843 2.10614 10.1906 1.90599C9.44252 1.69016 8.61432 1.95106 7.85857 2.64056C7.44832 3.01487 7.08503 3.49307 6.78791 4.04212L6.50764 3.59377C6.31097 3.27902 6.20702 2.91677 6.20702 2.54614V2.10998C6.45123 1.96291 6.61496 1.69523 6.61496 1.38995C6.6149 0.926814 6.23809 0.549999 5.77495 0.549999H3.10856C2.64543 0.549999 2.26862 0.926814 2.26862 1.38995C2.26862 1.69516 2.43229 1.96281 2.67646 2.10992V2.54618C2.67646 2.9168 2.57252 3.27908 2.37578 3.59389L2.20549 3.8667C2.13695 3.97649 2.17039 4.12107 2.28018 4.18963C2.39003 4.25817 2.53455 4.22473 2.60311 4.11494L2.77335 3.84223C3.01662 3.45294 3.14519 3.00478 3.14519 2.54621V2.22993H5.73823V2.54618C5.73823 3.00475 5.8668 3.45288 6.11011 3.84223L6.52899 4.51229C6.53471 4.52148 6.53996 4.53054 6.54549 4.53966C6.42345 4.81888 6.31747 5.11181 6.22993 5.41518C6.13733 5.73599 6.06798 6.06024 6.0225 6.3827L4.99101 6.01355C4.93994 5.99526 4.88412 5.99526 4.83306 6.01355L3.09772 6.6346L2.054 6.26104V5.56013C2.054 5.33033 2.09348 5.10472 2.17126 4.88954C2.21527 4.76781 2.15229 4.63345 2.03056 4.58945C1.90887 4.54548 1.77448 4.60842 1.73048 4.73015C1.63412 4.99658 1.58528 5.27586 1.58528 5.56013V6.09327L1.36241 6.01351C1.29062 5.98782 1.21084 5.99864 1.14849 6.04258C1.08617 6.08649 1.04907 6.15793 1.04907 6.23419V16.3151C1.04907 16.4445 1.15399 16.5494 1.28344 16.5494C1.28344 16.5494 12.1188 16.5508 12.1548 16.5494H12.1699C12.1815 16.5494 12.1929 16.5483 12.204 16.5467C12.7269 16.5182 13.2464 16.3478 13.702 16.0293C13.8081 15.9552 13.8339 15.8091 13.7597 15.703C13.6856 15.5969 13.5394 15.571 13.4334 15.6452C12.5169 16.2859 11.2931 16.2127 10.4578 15.4882C10.9492 14.9254 11.2177 14.2126 11.2177 13.4584C11.2177 12.8083 11.0183 12.189 10.6486 11.67C11.204 11.2722 11.8836 11.118 12.3969 11.2864C12.8199 11.4252 13.1077 11.7745 13.2291 12.2964C13.2493 12.3835 13.3173 12.4514 13.4043 12.4716C13.9035 12.5878 14.2463 12.8574 14.3957 13.2512C14.5889 13.7606 14.4484 14.4635 14.0378 15.042C13.9629 15.1475 13.9877 15.2938 14.0933 15.3687C14.1344 15.398 14.1818 15.412 14.2287 15.412C14.302 15.412 14.3744 15.3777 14.42 15.3133C14.9261 14.6001 15.0847 13.7463 14.8339 13.085V13.085ZM3.10856 1.01873H5.77492C5.97959 1.01873 6.14614 1.18524 6.14614 1.38995C6.14614 1.59465 5.97963 1.76117 5.77492 1.76117H3.10856C2.90389 1.76117 2.73734 1.59465 2.73734 1.38995C2.73734 1.18524 2.90389 1.01873 3.10856 1.01873V1.01873ZM6.68025 5.5451C6.98203 4.49916 7.51267 3.59061 8.17441 2.98684C8.80518 2.41135 9.4749 2.18739 10.0606 2.35638C10.601 2.5123 11.0307 2.99903 11.2706 3.727C11.5097 4.45234 11.5414 5.35233 11.3629 6.27401L10.3552 6.6346L8.61957 6.01351C8.56848 5.99523 8.51272 5.99523 8.46162 6.01351L6.72628 6.6346L6.47389 6.54428C6.51555 6.21206 6.58452 5.87681 6.68025 5.5451V5.5451ZM9.76489 16.0807C9.88962 16.0024 10.0093 15.9148 10.123 15.8182C10.2319 15.9151 10.3465 16.0027 10.4658 16.0807H9.76489ZM9.98079 15.3126C9.48549 15.8079 8.827 16.0807 8.12653 16.0807C7.4261 16.0807 6.76757 15.8079 6.27228 15.3126C5.656 14.6963 5.35945 13.7975 5.55109 13.1269C5.69073 12.6383 6.07551 12.3077 6.66381 12.1707C6.75079 12.1505 6.8187 12.0826 6.83895 11.9956C6.97587 11.4073 7.30652 11.0225 7.79516 10.8829C7.93158 10.8439 8.07743 10.8251 8.22842 10.8251C8.81972 10.8251 9.48987 11.1132 9.98075 11.604C10.4761 12.0993 10.7489 12.7579 10.7489 13.4583C10.7489 14.1588 10.4761 14.8173 9.98079 15.3126V15.3126ZM10.3123 11.2726C9.56953 10.5299 8.50625 10.1922 7.6664 10.4322C7.13201 10.585 6.72953 10.9596 6.50498 11.5037C6.32991 11.2771 6.12358 10.891 6.12358 10.3284C6.12358 10.199 6.01866 10.0941 5.88921 10.0941C5.75976 10.0941 5.65485 10.199 5.65485 10.3284C5.65485 11.0555 5.938 11.5512 6.17189 11.8368C5.62775 12.0613 5.25313 12.4638 5.10042 12.9982C4.8604 13.8381 5.19815 14.9013 5.94084 15.6441C6.10854 15.8118 6.29218 15.9577 6.48823 16.0807H1.51777V6.56697L3.01874 7.10417C3.06981 7.12246 3.12563 7.12246 3.17669 7.10417L4.91203 6.48309L6.64737 7.10417C6.69844 7.12246 6.75426 7.12246 6.80532 7.10417L8.54066 6.48309L10.2763 7.10417C10.3273 7.12242 10.3831 7.12246 10.4342 7.10417L11.9355 6.56694V10.7498C11.406 10.7523 10.8372 10.949 10.3478 11.3091C10.336 11.2969 10.3243 11.2847 10.3123 11.2726V11.2726Z" fill="#BEAD8E"/>
</g>
</g>
</g>
<defs>
<clipPath id="clip0_1_634">
<rect width="16" height="16" fill="white" transform="translate(0 0.549999)"/>
</clipPath>
</defs>
</svg>
