<svg width="16" height="17" viewBox="0 0 16 17" fill="none" xmlns="http://www.w3.org/2000/svg">
<g id="svg-gobbler - 2022-03-03T181136.019 1">
<g id="Group">
<g id="Group_2">
<g id="Group_3">
<path id="Vector" d="M15.6875 13.446H15.0676V7.08291C15.4328 6.80135 15.6686 6.3596 15.6686 5.86382V4.18882C15.6686 4.18588 15.6669 4.11578 15.6438 4.06563L14.6519 1.58466C14.6044 1.46597 14.4895 1.38816 14.3617 1.38816H1.63828C1.51047 1.38816 1.39556 1.46597 1.34809 1.58466L0.35625 4.06563C0.333094 4.11047 0.331437 4.18588 0.331437 4.18882V5.86382C0.331437 6.3596 0.567187 6.80135 0.932437 7.08291V13.446H0.3125C0.139906 13.446 0 13.5859 0 13.7585V15.3993C0 15.5719 0.139906 15.7118 0.3125 15.7118H6.58731C6.75991 15.7118 6.89981 15.5719 6.89981 15.3993C6.89981 15.2267 6.75991 15.0868 6.58731 15.0868H0.625V14.071H15.375V15.0868H9.41272C9.24013 15.0868 9.10022 15.2267 9.10022 15.3993C9.10022 15.5719 9.24013 15.7118 9.41272 15.7118H15.6875C15.8601 15.7118 16 15.5719 16 15.3993V13.7585C16 13.586 15.8601 13.446 15.6875 13.446ZM12.5915 5.86382C12.5915 6.36754 12.1817 6.77732 11.678 6.77732C11.1743 6.77732 10.7645 6.36751 10.7645 5.86382V4.50038H12.5915V5.86382ZM10.1395 5.86382C10.1395 6.36754 9.72972 6.77732 9.22603 6.77732C8.72234 6.77732 8.3125 6.36754 8.3125 5.86382V4.50038H10.1395V5.86382ZM7.6875 5.86382C7.6875 6.36754 7.27769 6.77732 6.774 6.77732C6.27031 6.77732 5.8605 6.36751 5.8605 5.86382V4.50038H7.6875V5.86382ZM5.2355 5.86382C5.2355 6.36754 4.82569 6.77732 4.322 6.77732C3.81831 6.77732 3.4085 6.36751 3.4085 5.86382V4.50038H5.23553V5.86382H5.2355ZM0.956438 5.86382V4.50038H2.78344V5.86382C2.78344 6.36754 2.37363 6.77732 1.86994 6.77732C1.36625 6.77732 0.956438 6.36754 0.956438 5.86382ZM5.52253 2.01316L5.27437 3.87538H3.50266L3.99897 2.01316H5.52253ZM8.3125 2.01316H9.84694L10.0951 3.87538H8.3125V2.01316ZM12.001 2.01316L12.4973 3.87538H10.7257L10.4775 2.01316H12.001ZM13.2165 4.50038H15.0435V5.86382C15.0435 6.36754 14.6337 6.77732 14.13 6.77732C13.6263 6.77732 13.2165 6.36751 13.2165 5.86382V4.50038ZM14.8946 3.87538H13.1441L12.6478 2.01316H14.1501L14.8946 3.87538ZM7.6875 3.87538H5.90491L6.15306 2.01316H7.6875V3.87538ZM1.84991 2.01316H3.35216L2.85584 3.87538H1.10544L1.84991 2.01316ZM3.05628 13.446V8.89813H6.28944V13.446H3.05628V13.446ZM6.91444 13.446V8.58563C6.91444 8.41304 6.77453 8.27313 6.60194 8.27313H2.74378C2.57119 8.27313 2.43128 8.41304 2.43128 8.58563V13.446H1.55744V7.37041C1.65838 7.39132 1.76291 7.40232 1.86994 7.40232C2.36981 7.40232 2.81472 7.16266 3.09594 6.79226C3.37712 7.16266 3.82206 7.40232 4.32194 7.40232C4.82181 7.40232 5.26675 7.16266 5.54794 6.79226C5.82912 7.16266 6.27406 7.40232 6.77394 7.40232C7.27381 7.40232 7.71875 7.16266 7.99994 6.79226C8.28113 7.16266 8.72606 7.40232 9.22594 7.40232C9.72581 7.40232 10.1708 7.16266 10.4519 6.79226C10.7331 7.16266 11.1781 7.40232 11.6779 7.40232C12.1778 7.40232 12.6227 7.16266 12.9039 6.79226C13.1851 7.16266 13.6301 7.40232 14.1299 7.40232C14.237 7.40232 14.3415 7.39132 14.4424 7.37041V13.446H6.91444V13.446Z" fill="#BEAD8E"/>
<path id="Vector_2" d="M13.2563 8.27312H8.39722C8.22462 8.27312 8.08472 8.41303 8.08472 8.58563V11.9846C8.08472 12.1572 8.22462 12.2971 8.39722 12.2971H13.2563C13.4289 12.2971 13.5688 12.1572 13.5688 11.9846V8.58563C13.5688 8.41303 13.4289 8.27312 13.2563 8.27312ZM12.9438 11.6721H10.7986L11.3254 11.1453C11.4474 11.0233 11.4474 10.8254 11.3254 10.7033C11.2033 10.5813 11.0055 10.5813 10.8834 10.7033L9.91465 11.6721H8.70969V8.89813H12.9437V11.6721H12.9438Z" fill="#BEAD8E"/>
<g id="Group_4">
<path id="Vector_3" d="M9.4569 11.0789C9.37693 11.0789 9.29693 11.0484 9.23593 10.9873C9.1139 10.8653 9.1139 10.6674 9.23593 10.5453L10.4805 9.30081C10.6025 9.17878 10.8004 9.17878 10.9224 9.30081C11.0445 9.42285 11.0445 9.62072 10.9224 9.74278L9.67791 10.9873C9.61684 11.0484 9.53687 11.0789 9.4569 11.0789V11.0789Z" fill="#BEAD8E"/>
</g>
<g id="Group_5">
<path id="Vector_4" d="M8.00563 15.7118C7.87316 15.7118 7.75257 15.6247 7.71001 15.4997C7.66857 15.3779 7.70807 15.2396 7.80738 15.1578C7.90935 15.0739 8.05841 15.064 8.17054 15.1339C8.27966 15.2019 8.33756 15.3339 8.31219 15.4603C8.28322 15.6045 8.15294 15.7118 8.00563 15.7118V15.7118Z" fill="#BEAD8E"/>
</g>
</g>
</g>
</g>
</g>
</svg>
