<svg width="16" height="17" viewBox="0 0 16 17" fill="none" xmlns="http://www.w3.org/2000/svg">
<g id="svg-gobbler - 2022-03-03T183514.620 1" clip-path="url(#clip0_1_714)">
<g id="Group">
<g id="Group_2">
<path id="Vector" d="M14.8765 7.5258C14.8153 5.78055 14.1085 4.14855 12.8675 2.90755C11.5668 1.60655 9.83801 0.890297 8.00001 0.890297C4.28776 0.890297 1.25452 3.84505 1.12377 7.5258C0.557266 7.77755 0.160767 8.34455 0.160767 9.00355V10.819C0.160767 11.7105 0.886016 12.436 1.77777 12.436C2.35476 12.436 2.82401 11.9668 2.82401 11.3898V8.43255C2.82401 7.8908 2.40851 7.44905 1.88027 7.39655C2.07527 4.1898 4.74476 1.6403 8.00001 1.6403C9.63801 1.6403 11.1783 2.2788 12.3375 3.43805C13.402 4.50255 14.025 5.89005 14.1188 7.3968C13.591 7.4498 13.1763 7.8913 13.1763 8.43255V11.3895C13.1763 11.9358 13.5983 12.3803 14.1328 12.4265V13.1738C14.1328 14.0153 13.448 14.6998 12.6065 14.6998H11.4763C11.4208 14.5413 11.3338 14.3948 11.2118 14.2733C10.998 14.0585 10.713 13.9403 10.4095 13.9403H9.24451C9.07726 13.9403 8.91676 13.9758 8.76976 14.0443C8.36876 14.2285 8.10976 14.633 8.10976 15.0748C8.10976 15.3783 8.22801 15.6633 8.44226 15.8765C8.65651 16.0913 8.94151 16.2095 9.24451 16.2095H10.4095C10.8925 16.2095 11.3183 15.8973 11.477 15.4498H12.6065C13.8618 15.4498 14.8828 14.4288 14.8828 13.1738V12.293C15.4458 12.0398 15.8393 11.4748 15.8393 10.8185V9.00305C15.8393 8.34455 15.4428 7.77755 14.8765 7.5258V7.5258ZM2.07377 8.43255V11.3895C2.07377 11.5528 1.94102 11.6858 1.77752 11.6858C1.29952 11.6858 0.910516 11.2968 0.910516 10.8188V9.0033C0.910516 8.52505 1.29952 8.1363 1.77752 8.1363C1.94102 8.1363 2.07377 8.2693 2.07377 8.43255V8.43255ZM10.7858 15.1553C10.7485 15.3318 10.59 15.46 10.4093 15.46H9.24426C9.14176 15.46 9.04551 15.42 8.97201 15.3465C8.89951 15.2743 8.85951 15.1778 8.85951 15.0753C8.85951 14.9255 8.94726 14.7888 9.08476 14.7255C9.13376 14.7025 9.18751 14.6908 9.24426 14.6908H10.4093C10.5118 14.6908 10.608 14.7305 10.6813 14.804C10.7538 14.8763 10.7938 14.9728 10.7938 15.0753C10.794 15.1028 10.791 15.1303 10.7858 15.1553V15.1553ZM15.0893 10.8188C15.0893 11.2968 14.7003 11.6858 14.2223 11.6858C14.059 11.6858 13.926 11.553 13.926 11.3895V8.43255C13.926 8.2693 14.0588 8.1363 14.2223 8.1363C14.7003 8.1363 15.0893 8.5253 15.0893 9.0033V10.8188Z" fill="#BEAD8E"/>
<path id="Vector_2" d="M10.4283 10.948C11.3045 10.948 12.0173 10.235 12.0173 9.35904V6.12129C12.0173 5.69779 11.8518 5.29879 11.5513 4.99829C11.2508 4.69779 10.852 4.5323 10.4283 4.5323H5.57179C4.69554 4.5323 3.98279 5.24504 3.98279 6.12129V9.35904C3.98279 10.2353 4.69554 10.948 5.57179 10.948H5.60154V11.787C5.60154 12.107 5.79229 12.391 6.08729 12.5108C6.18254 12.549 6.28154 12.568 6.37954 12.568C6.58379 12.568 6.78279 12.487 6.92854 12.3363L8.32429 10.948H10.4283ZM7.90554 10.307L6.39504 11.8093C6.38829 11.8163 6.38329 11.8215 6.36904 11.8153C6.35179 11.8083 6.35179 11.797 6.35179 11.787V10.573C6.35179 10.366 6.18404 10.198 5.97679 10.198H5.57204C5.10929 10.198 4.73304 9.82154 4.73304 9.35904V6.12129C4.73304 5.65854 5.10929 5.28229 5.57204 5.28229H10.4285C10.652 5.28229 10.8623 5.36979 11.0213 5.52854C11.1803 5.68754 11.2675 5.89804 11.2675 6.12129V9.35904C11.2675 9.82179 10.891 10.198 10.4285 10.198H8.17004C8.07079 10.198 7.97579 10.2373 7.90554 10.307V10.307Z" fill="#BEAD8E"/>
<path id="Vector_3" d="M6.17825 7.2468C5.87325 7.2468 5.625 7.4953 5.625 7.80005C5.625 8.1048 5.8735 8.3533 6.17825 8.3533C6.4835 8.3533 6.732 8.1048 6.732 7.80005C6.732 7.4953 6.48375 7.2468 6.17825 7.2468Z" fill="#BEAD8E"/>
<path id="Vector_4" d="M7.99978 7.2468C7.69478 7.2468 7.44653 7.4953 7.44653 7.80005C7.44653 8.1048 7.69503 8.3533 7.99978 8.3533C8.30528 8.3533 8.55353 8.1048 8.55353 7.80005C8.55353 7.4953 8.30528 7.2468 7.99978 7.2468Z" fill="#BEAD8E"/>
<path id="Vector_5" d="M9.82119 7.2468C9.51619 7.2468 9.26794 7.4953 9.26794 7.80005C9.26794 8.1048 9.51644 8.3533 9.82119 8.3533C10.1264 8.3533 10.3749 8.1048 10.3749 7.80005C10.3749 7.4953 10.1264 7.2468 9.82119 7.2468Z" fill="#BEAD8E"/>
</g>
</g>
</g>
<defs>
<clipPath id="clip0_1_714">
<rect width="16" height="16" fill="white" transform="translate(0 0.550049)"/>
</clipPath>
</defs>
</svg>
