<svg width="16" height="17" viewBox="0 0 16 17" fill="none" xmlns="http://www.w3.org/2000/svg">
<g id="925808_wifi_icon 1">
<path id="Vector" d="M7.95 9.87085C7.24315 9.87085 6.53629 10.1619 6.07892 10.7024C5.66312 11.2014 4.91469 10.5361 5.33048 10.0372C5.99576 9.28874 6.95209 8.87294 7.95 8.87294C8.94791 8.87294 9.90424 9.28874 10.5695 10.0372C10.9853 10.5361 10.2369 11.2014 9.82108 10.7024C9.36371 10.1619 8.65685 9.87085 7.95 9.87085ZM7.95 13.3635C7.40946 13.3635 6.95209 12.9062 6.95209 12.3656C6.95209 11.8251 7.40946 11.3677 7.95 11.3677C8.49053 11.3677 8.94791 11.8251 8.94791 12.3656C8.94791 12.9062 8.49053 13.3635 7.95 13.3635ZM7.95 7.37607C6.61945 7.37607 5.41364 7.83345 4.45731 8.78978C4.04151 9.20558 3.2515 8.58188 3.75046 8.08293C4.87311 6.96028 6.36997 6.37816 7.95 6.37816C9.53003 6.37816 11.0269 6.96028 12.1495 8.08293C12.6485 8.58188 11.8585 9.20558 11.4427 8.78978C10.4864 7.83345 9.28055 7.37607 7.95 7.37607ZM7.95 4.8813C6.03734 4.8813 4.24941 5.58815 2.87728 6.87712C2.37833 7.33449 1.67147 6.62764 2.17043 6.17026C3.79204 4.6734 5.78786 3.88338 7.95 3.88338C10.1121 3.88338 12.108 4.6734 13.7296 6.17026C14.2285 6.62764 13.5217 7.33449 13.0227 6.87712C11.6506 5.58815 9.86266 4.8813 7.95 4.8813Z" fill="#BEAD8E"/>
</g>
</svg>
