<svg width="16" height="17" viewBox="0 0 16 17" fill="none" xmlns="http://www.w3.org/2000/svg">
<g id="svg-gobbler - 2022-03-03T182234.727 1" clip-path="url(#clip0_1_660)">
<g id="Group">
<path id="Vector" d="M15.6875 6.42505H12.6562C12.4836 6.42505 12.3438 6.56494 12.3438 6.73755C12.3438 6.91016 12.4836 7.05005 12.6562 7.05005H15.375V9.67505H7.125V7.05005H9.84375C10.0164 7.05005 10.1562 6.91016 10.1562 6.73755C10.1562 6.56494 10.0164 6.42505 9.84375 6.42505H5.46521C5.78296 5.94653 5.97571 5.39771 6.02686 4.8197H6.21472C6.38733 4.8197 6.52722 4.67969 6.52722 4.5072C6.52722 4.33459 6.38733 4.1947 6.21472 4.1947H6.04089V3.98755C6.04089 3.81494 5.901 3.67505 5.72839 3.67505H1.39661C1.224 3.67505 1.08411 3.81494 1.08411 3.98755V4.1947H0.910278C0.737671 4.1947 0.597778 4.33459 0.597778 4.5072C0.597778 4.67969 0.737671 4.8197 0.910278 4.8197H1.09778C1.14856 5.39758 1.3407 5.94653 1.65759 6.42505H0.3125C0.139893 6.42505 0 6.56494 0 6.73755V16.2375C0 16.4102 0.139893 16.55 0.3125 16.55H15.6875C15.8601 16.55 16 16.4102 16 16.2375V6.73755C16 6.56494 15.8601 6.42505 15.6875 6.42505ZM1.70911 4.51038V4.30005H5.41589V4.5072C5.41589 5.2229 5.15356 5.89917 4.67468 6.42505H2.44739C1.97034 5.89954 1.70911 5.22461 1.70911 4.51038ZM2.31323 7.05005H6.5V9.67505H0.625V7.05005H2.31323ZM0.625 10.3H6.5V15.925H0.625V10.3ZM7.125 10.3H10.9375V15.925H7.125V10.3ZM11.5625 15.925V10.3H15.375V15.925H11.5625Z" fill="#BEAD8E"/>
<path id="Vector_2" d="M10.7812 8.36255C10.7812 8.53516 10.9211 8.67505 11.0938 8.67505H11.4062C11.5789 8.67505 11.7188 8.53516 11.7188 8.36255C11.7188 8.18994 11.5789 8.05005 11.4062 8.05005H11.0938C10.9211 8.05005 10.7812 8.18994 10.7812 8.36255Z" fill="#BEAD8E"/>
<path id="Vector_3" d="M2.06262 8.67505C2.14478 8.67505 2.22546 8.6416 2.28357 8.5835C2.34167 8.52539 2.37512 8.4447 2.37512 8.36255C2.37512 8.2804 2.34167 8.19971 2.28357 8.1416C2.22546 8.0835 2.14478 8.05005 2.06262 8.05005C1.98035 8.05005 1.89978 8.0835 1.84167 8.1416C1.78357 8.19971 1.75012 8.2804 1.75012 8.36255C1.75012 8.4447 1.78357 8.52539 1.84167 8.5835C1.89978 8.6416 1.98035 8.67505 2.06262 8.67505Z" fill="#BEAD8E"/>
<path id="Vector_4" d="M3.56262 8.67505C3.64478 8.67505 3.72546 8.6416 3.78357 8.5835C3.84167 8.52539 3.87512 8.4447 3.87512 8.36255C3.87512 8.2804 3.84167 8.19971 3.78357 8.1416C3.72546 8.0835 3.64478 8.05005 3.56262 8.05005C3.4801 8.05005 3.39978 8.0835 3.34167 8.1416C3.28357 8.19971 3.25012 8.2804 3.25012 8.36255C3.25012 8.4447 3.28357 8.52539 3.34167 8.5835C3.39978 8.6416 3.48035 8.67505 3.56262 8.67505Z" fill="#BEAD8E"/>
<path id="Vector_5" d="M5.06262 8.67505C5.14478 8.67505 5.22546 8.6416 5.28357 8.5835C5.34167 8.52539 5.37512 8.4447 5.37512 8.36255C5.37512 8.2804 5.34167 8.19971 5.28357 8.1416C5.22546 8.0835 5.14478 8.05005 5.06262 8.05005C4.9801 8.05005 4.89978 8.0835 4.84167 8.1416C4.7832 8.19971 4.75012 8.2804 4.75012 8.36255C4.75012 8.4447 4.7832 8.52539 4.84167 8.5835C4.89978 8.6416 4.9801 8.67505 5.06262 8.67505Z" fill="#BEAD8E"/>
<path id="Vector_6" d="M12.6418 12.6438C12.4692 12.6438 12.3293 12.7837 12.3293 12.9563V13.2688C12.3293 13.4414 12.4692 13.5813 12.6418 13.5813C12.8145 13.5813 12.9543 13.4414 12.9543 13.2688V12.9563C12.9543 12.7837 12.8145 12.6438 12.6418 12.6438Z" fill="#BEAD8E"/>
<path id="Vector_7" d="M9.85815 12.6438C9.68555 12.6438 9.54565 12.7837 9.54565 12.9563V13.2688C9.54565 13.4414 9.68555 13.5813 9.85815 13.5813C10.0308 13.5813 10.1707 13.4414 10.1707 13.2688V12.9563C10.1707 12.7837 10.0308 12.6438 9.85815 12.6438Z" fill="#BEAD8E"/>
<path id="Vector_8" d="M5.5625 10.8H1.5625C1.38989 10.8 1.25 10.9399 1.25 11.1125V15.1125C1.25 15.2852 1.38989 15.425 1.5625 15.425H5.5625C5.73511 15.425 5.875 15.2852 5.875 15.1125V11.1125C5.875 10.9399 5.73511 10.8 5.5625 10.8ZM3.31653 11.425L1.875 12.8666V11.425H3.31653ZM1.875 13.7504L4.20032 11.425H5.25V11.8832L2.33313 14.8H1.875V13.7504ZM3.21704 14.8L5.25 12.7671V14.8H3.21704Z" fill="#BEAD8E"/>
<path id="Vector_9" d="M7.99597 1.80005H11.621V3.47192C11.1873 3.60571 10.871 4.01038 10.871 4.48743C10.871 5.07336 11.3477 5.54993 11.9335 5.54993C12.5194 5.54993 12.996 5.07336 12.996 4.48743C12.996 4.01038 12.6798 3.60571 12.246 3.47192V1.80005H14.621V3.47192C14.1873 3.60571 13.871 4.01038 13.871 4.48743C13.871 5.07336 14.3477 5.54993 14.9335 5.54993C15.5194 5.54993 15.996 5.07336 15.996 4.48743C15.996 4.01038 15.6798 3.60571 15.246 3.47192V1.80005H15.6835C15.8561 1.80005 15.996 1.66016 15.996 1.48755C15.996 1.31494 15.8561 1.17505 15.6835 1.17505H15.246V0.862549C15.246 0.689941 15.1061 0.550049 14.9335 0.550049C14.761 0.550049 14.621 0.689941 14.621 0.862549V1.17505H12.246V0.862549C12.246 0.689941 12.1061 0.550049 11.9335 0.550049C11.761 0.550049 11.621 0.689941 11.621 0.862549V1.17505H7.99597C7.82349 1.17505 7.68347 1.31494 7.68347 1.48755C7.68347 1.66016 7.82349 1.80005 7.99597 1.80005V1.80005ZM11.9335 4.92493C11.6923 4.92493 11.496 4.72876 11.496 4.48743C11.496 4.24622 11.6923 4.04993 11.9335 4.04993C12.1748 4.04993 12.371 4.24622 12.371 4.48743C12.371 4.72876 12.1748 4.92493 11.9335 4.92493ZM14.9335 4.92493C14.6923 4.92493 14.496 4.72876 14.496 4.48743C14.496 4.24622 14.6923 4.04993 14.9335 4.04993C15.1748 4.04993 15.371 4.24622 15.371 4.48743C15.371 4.72876 15.1748 4.92493 14.9335 4.92493Z" fill="#BEAD8E"/>
<path id="Vector_10" d="M11.4711 6.9585C11.5292 6.90039 11.5626 6.8197 11.5626 6.73755C11.5626 6.6554 11.5292 6.57471 11.4711 6.5166C11.413 6.4585 11.3323 6.42505 11.2501 6.42505C11.1676 6.42505 11.0873 6.4585 11.0292 6.5166C10.9711 6.57471 10.9376 6.6554 10.9376 6.73755C10.9376 6.8197 10.9711 6.90039 11.0292 6.9585C11.0873 7.0166 11.1676 7.05005 11.2501 7.05005C11.3323 7.05005 11.413 7.0166 11.4711 6.9585Z" fill="#BEAD8E"/>
</g>
</g>
<defs>
<clipPath id="clip0_1_660">
<rect width="16" height="16" fill="white" transform="translate(0 0.550049)"/>
</clipPath>
</defs>
</svg>
